<?xml version="1.0" encoding="utf-8"?>
<!-- Generator: Adobe Illustrator 25.0.1, SVG Export Plug-In . SVG Version: 6.00 Build 0)  -->
<svg version="1.0" id="katman_1" xmlns="http://www.w3.org/2000/svg" xmlns:xlink="http://www.w3.org/1999/xlink" x="0px" y="0px"
	 viewBox="0 0 600 400" style="enable-background:new 0 0 600 400;" xml:space="preserve">
<style type="text/css">
	.st0{fill:#FC8019;}
</style>
<path class="st0" d="M116.5,266.8c-0.1-0.1-0.2-0.1-0.3-0.2c-1.6-2-11.5-14.4-21.6-30.4c-3-5.1-5-9-4.6-10.1
	c1-2.7,18.6-4.1,24.1-1.7c1.7,0.7,1.6,1.7,1.6,2.3c0,2.4-0.1,9-0.1,9c0,1.4,1.1,2.5,2.5,2.4c1.4,0,2.5-1.1,2.4-2.5l0-16.3h0
	c0-1.4-1.5-1.8-1.8-1.8c-2.8,0-8.6,0-14.8,0c-13.6,0-16.7,0.6-19-1c-5-3.3-13.2-25.4-13.4-37.9c-0.3-17.6,10.1-32.8,24.8-40.3
	c6.1-3.1,13-4.8,20.3-4.8c23.2,0,42.3,17.5,44.8,40c0,0,0,0,0,0.1c0.5,5.4-29.5,6.6-35.5,5c-0.9-0.2-1.1-1.2-1.1-1.6
	c0-4.1,0-15.8,0-15.8c0-1.4-1.1-2.5-2.5-2.4h0c-1.4,0-2.4,1.1-2.4,2.5l0,21.5c0,1.4,1.2,1.7,1.5,1.8c3.4,0,11.3,0,18.6,0
	c9.9,0,14.1,1.2,16.9,3.3c1.8,1.4,2.6,4.1,1.9,7.6C153.1,226.5,117.8,265.1,116.5,266.8z M212.2,194c8.9,3.8,14.4,8.1,14.4,17.4
	c0,9.5-7.2,15.6-18.3,15.6c-9,0-16.3-4.1-19.9-11.2l-0.6-1.1l10.6-6.1l0.7,1.1c2.4,3.9,5.1,5.6,8.9,5.6c3.3,0,5.6-1.5,5.6-3.7
	c0-2.4-1.6-3.4-6.6-5.6l-2.6-1.1c-6.8-2.9-13.1-6.9-13.1-16.7c0-8.8,6.7-14.9,16.4-14.9c7.3,0,12.3,2.8,15.7,8.9l0.6,1.1l-10.3,6.6
	l-0.7-1.3c-1.7-3.1-3.3-3.7-5.4-3.7c-2.1,0-3.5,1.2-3.5,3c0,2.1,1,3,5.5,5L212.2,194z M287.3,195.8l7.5-20.9h12.9l-19,52.9h-2.9
	l-11.6-24.8c-0.5-1.1-1.1-2.5-1.6-3.8c-0.5,1.3-1.1,2.7-1.6,3.8l-12,24.8h-2.8l-19.3-52.9h13.7l7.6,20.9c0.5,1.3,1,3,1.4,4.5
	c0.5-1.6,1.1-3.2,1.8-4.6l9.9-21.2h2.8l10.1,21.2c0.6,1.4,1.3,3,1.8,4.6C286.3,198.8,286.8,197.1,287.3,195.8z M322.6,226.3v-52.5
	h13v52.5H322.6z M378.1,208.7V197h24.1v23.5l-0.5,0.4c-2.8,2.3-10.1,6.1-20,6.1c-16.7,0-28.3-11.1-28.3-26.9
	c0-15.5,11.2-26.8,26.7-26.8c8.5,0,14.8,2.4,19.1,7.3l0.8,1l-8.8,8.8l-1-1c-2.5-2.5-5-4.1-10.1-4.1c-7.9,0-13.5,6.1-13.5,14.9
	c0,9.1,5.9,15,15.1,15c3,0,6.2-0.5,8.4-1.4v-5.1H378.1z M443.8,208.7V197h24.1v23.5l-0.5,0.4c-2.8,2.3-10.1,6.1-20,6.1
	c-16.7,0-28.3-11.1-28.3-26.9c0-15.5,11.2-26.8,26.7-26.8c8.5,0,14.8,2.4,19.1,7.3l0.8,1l-8.8,8.8l-1-1c-2.5-2.5-5-4.1-10.1-4.1
	c-7.9,0-13.5,6.1-13.5,14.9c0,9.1,5.9,15,15.1,15c3,0,6.2-0.5,8.4-1.4v-5.1H443.8z M515.4,173.9H529l-18.6,34.9v17.6h-13v-16.8
	l-19.8-35.7H492l9.2,16.7c1,1.8,2,4.2,2.8,6.2c0.7-1.9,1.7-4.3,2.7-6.2L515.4,173.9z"/>
</svg>
